<svg width="20" height="32" viewBox="0 0 20 32" fill="none" xmlns="http://www.w3.org/2000/svg">
<path d="M16.6929 26.3349H16.3379C16.2163 26.3349 16.1132 26.2429 16.0958 26.1195C15.8809 24.5274 15.0526 22.5628 13.1638 20.5578C13.0433 20.431 13.0205 20.2335 13.1139 20.0854C14.7671 17.4432 16.2966 13.477 15.4651 10.8347C15.2524 10.1559 14.9007 9.59825 14.4263 9.17863C14.3308 9.09448 14.347 8.93965 14.4578 8.87794C15.6442 8.22606 16.4302 6.89315 16.326 5.3852C16.2 3.58329 14.7791 2.12695 13.0368 2.00802C10.9819 1.8689 9.26677 3.55748 9.26677 5.65223C9.26677 6.72934 9.71943 7.69873 10.4391 8.36631C10.5314 8.45158 10.513 8.60417 10.4033 8.66364C10.2437 8.75003 10.0885 8.84989 9.93762 8.96209C8.20838 10.2681 7.65802 13.0068 7.60591 14.4183C7.58203 15.0489 7.62545 15.6659 7.73509 16.2741C7.95111 17.4914 8.43308 18.6684 9.18861 19.8195C9.41766 20.1673 9.67276 20.4983 9.94848 20.808L11.351 22.3911C12.7709 24.0326 13.534 25.6438 13.6436 27.1225C13.649 27.1775 13.6534 27.2314 13.6556 27.2863C13.6957 28.2198 14.436 28.9514 15.3414 28.9514H16.7341C17.4408 28.9514 18.0118 28.3533 17.9998 27.6185C17.9879 26.8981 17.3887 26.3338 16.6918 26.3338L16.6929 26.3349ZM12.8002 4.61552C13.3527 4.61552 13.8032 5.08002 13.8032 5.65223C13.8032 6.22444 13.3538 6.68894 12.8002 6.68894C12.2465 6.68894 11.7982 6.22444 11.7982 5.65223C11.7982 5.08002 12.2465 4.61552 12.8002 4.61552ZM11.0177 17.9234C10.3773 16.8092 10.0929 15.694 10.1352 14.5193C10.1808 13.2986 10.6899 11.6358 11.4302 11.0759C11.5605 10.9783 11.7244 10.8863 11.973 10.8863C12.0826 10.8863 12.2085 10.9042 12.3562 10.9458C12.7307 11.0535 12.9337 11.2554 13.0553 11.6436C13.4298 12.8307 12.8078 15.4775 11.4422 17.9166C11.3477 18.0861 11.1132 18.0894 11.0166 17.9234H11.0177Z" fill="#1769FF"/>
<path d="M8.21692 21.8669C8.17893 21.813 8.10728 21.8007 8.05301 21.8355C5.99376 23.174 4.46642 22.3965 3.81076 22.1788C2.98033 21.9017 2.09237 22.3168 1.74609 23.1459L1.10454 24.6763C0.826648 25.3394 1.12191 26.1091 1.76346 26.3963C2.40501 26.6836 3.14968 26.3784 3.42757 25.7164L3.70438 25.0567C3.74997 24.9467 3.86395 24.885 3.97685 24.9086C5.32725 25.1857 7.29965 25.5324 9.6433 23.8954C9.70518 23.8528 9.71495 23.7619 9.66501 23.7058C9.44357 23.4522 9.2232 23.1897 9.0061 22.9171C8.7282 22.5681 8.46551 22.2181 8.21801 21.868L8.21692 21.8669Z" fill="#1769FF"/>
</svg>
